<svg width="32" height="32" viewBox="0 0 32 32" fill="none" xmlns="http://www.w3.org/2000/svg">
<circle cx="16" cy="16" r="10" fill="white"/>
<path fill-rule="evenodd" clip-rule="evenodd" d="M18.4818 11.0793L22.2978 15.0793C22.3551 15.1393 22.3831 15.214 22.4271 15.2807C22.4751 15.3527 22.5324 15.4167 22.5658 15.4967C22.6311 15.658 22.6671 15.8287 22.6671 15.9993C22.6671 16.174 22.6311 16.3473 22.5644 16.51C22.4964 16.6727 22.3991 16.8207 22.2751 16.9433L18.2764 20.942C17.7551 21.4633 16.9111 21.4633 16.3911 20.942C15.8698 20.422 15.8698 19.578 16.3911 19.0567L18.1151 17.3327H10.6671C9.92978 17.3327 9.33378 16.7367 9.33378 15.9993C9.33378 15.2633 9.92978 14.666 10.6671 14.666H18.2178L16.5524 12.9207C16.0444 12.3873 16.0631 11.5447 16.5964 11.0353C17.1298 10.526 17.9738 10.5473 18.4818 11.0793ZM2.66711 15.9993C2.66711 23.3527 8.64845 29.3327 16.0004 29.3327C23.3524 29.3327 29.3338 23.3527 29.3338 15.9993C29.3338 8.64735 23.3524 2.66602 16.0004 2.66602C8.64845 2.66602 2.66711 8.64735 2.66711 15.9993Z" fill="#E23C47"/>
<mask id="mask0" mask-type="alpha" maskUnits="userSpaceOnUse" x="2" y="2" width="28" height="28">
<path fill-rule="evenodd" clip-rule="evenodd" d="M18.4818 11.0793L22.2978 15.0793C22.3551 15.1393 22.3831 15.214 22.4271 15.2807C22.4751 15.3527 22.5324 15.4167 22.5658 15.4967C22.6311 15.658 22.6671 15.8287 22.6671 15.9993C22.6671 16.174 22.6311 16.3473 22.5644 16.51C22.4964 16.6727 22.3991 16.8207 22.2751 16.9433L18.2764 20.942C17.7551 21.4633 16.9111 21.4633 16.3911 20.942C15.8698 20.422 15.8698 19.578 16.3911 19.0567L18.1151 17.3327H10.6671C9.92978 17.3327 9.33378 16.7367 9.33378 15.9993C9.33378 15.2633 9.92978 14.666 10.6671 14.666H18.2178L16.5524 12.9207C16.0444 12.3873 16.0631 11.5447 16.5964 11.0353C17.1298 10.526 17.9738 10.5473 18.4818 11.0793ZM2.66711 15.9993C2.66711 23.3527 8.64845 29.3327 16.0004 29.3327C23.3524 29.3327 29.3338 23.3527 29.3338 15.9993C29.3338 8.64735 23.3524 2.66602 16.0004 2.66602C8.64845 2.66602 2.66711 8.64735 2.66711 15.9993Z" fill="white"/>
</mask>
<g mask="url(#mask0)">
<rect width="32" height="32" fill="#E23C47"/>
</g>
</svg>
