<svg width="118" height="163" viewBox="0 0 118 163" fill="none" xmlns="http://www.w3.org/2000/svg">
<path d="M114.1 72.6996C113.6 83.0996 110.6 93.0996 105.1 103.3C99.4002 113.7 92.2002 124.1 82.3002 135.9C75.9002 143.5 69.1002 150.9 62.2002 157.6C61.4002 158.4 60.7002 158.6 60.1002 158.6C59.3002 158.6 58.6002 158.2 58.1002 157.7C43.2002 143.1 31.1002 129 21.3002 114.8C14.9002 105.5 10.2002 96.7996 7.10018 88.2996C4.70018 81.7996 3.60018 74.9996 3.80018 67.9996C3.90018 65.9996 3.80018 63.8996 3.70018 61.8996C3.50018 59.0996 3.50018 56.1996 3.80018 53.3996C4.70018 42.4996 8.60018 32.6996 15.4002 24.1996C24.2002 13.2996 35.6002 6.69961 49.4002 4.29961C50.2002 4.19961 51.0002 4.09961 51.8002 3.99961C53.8002 3.79961 55.9002 3.59961 58.0002 3.59961C78.8002 4.39961 94.9002 13.4996 105.4 31.5996C108.9 37.5996 111 43.9996 111.8 50.5996C112.1 52.6996 112.4 54.8996 112.9 56.9996C114 61.9996 114.4 67.1996 114.1 72.6996Z" fill="white" stroke="white" stroke-width="7.0333" stroke-miterlimit="10"/>
<path d="M57.9001 3.5C78.7001 4.3 94.8001 13.4 105.3 31.5C110.6 40.6 112.6 50.7 112.1 61.2C111.5 72 108.3 82 103.2 91.5C96.9001 103.2 89.0001 113.8 80.5001 124C74.2001 131.6 67.5001 138.8 60.4001 145.7C59.4001 146.7 58.5001 146.8 57.5001 145.8C44.0001 132.6 31.5001 118.6 20.8001 103C15.1001 94.8 10.2001 86.1 6.70006 76.7C4.00006 69.1 3.00006 61.3 3.70006 53.3C4.60006 42.4 8.50006 32.6 15.4001 24.1C24.2001 13.2 35.6001 6.6 49.4001 4.2C50.2001 4.1 51.0001 4 51.8001 3.9C53.8001 3.7 55.8001 3.6 57.9001 3.5Z" fill="#6E9FED"/>
<path d="M59 14.9004C79.8 15.7004 95.9 24.8004 106.4 42.9004C111.7 52.0004 113.7 62.1004 113.2 72.6004C112.6 83.4004 109.4 93.4004 104.3 102.9C98 114.6 90.1 125.2 81.6 135.4C75.3 143 69.5 149.2 62.5 156.1C61.2 157.5 59 157.7 57.4 156.1C44 142.8 32.7 129.9 22 114.3C16.3 106.1 11.4 97.4004 7.90003 88.0004C5.10003 80.5004 4.10003 72.7004 4.80003 64.7004C5.70003 53.8004 9.60003 44.0004 16.5 35.5004C25.3 24.6004 36.7 18.0004 50.5 15.6004C51.3 15.5004 52.1 15.4004 52.9 15.3004C54.9 15.1004 56.9 14.9004 59 14.9004Z" fill="#FFCAE0" stroke="#80A5EC" stroke-width="1.7583" stroke-miterlimit="10"/>
<path d="M99.7 67.0993C99.6 89.3993 82 106.999 60.1 107.199C38 107.399 20 89.5993 19.8 67.4993C19.7 45.3993 37.4 27.2993 59.1 27.0993C81.3 26.8993 99.7 44.6993 99.7 67.0993Z" fill="white"/>
<path d="M81.5001 81.7994H80.4001V56.9994C80.4001 55.5994 79.5001 54.6994 78.1001 54.6994V52.3994C78.1001 51.1994 77.1001 50.0994 75.8001 50.0994H70.2001L62.9001 43.5994C61.3001 42.1994 58.9001 42.0994 57.2001 43.4994L48.9001 50.1994H44.4001C43.2001 50.1994 42.1001 51.1994 42.1001 52.4994V54.7994C40.7001 54.7994 39.8001 55.6994 39.8001 57.0994V81.8994H38.7001C38.1001 81.8994 37.6001 82.3994 37.6001 82.9994V85.2994C37.6001 85.8994 38.1001 86.3994 38.7001 86.3994H81.5001C82.1001 86.3994 82.6001 85.8994 82.6001 85.2994V82.9994C82.6001 82.2994 82.1001 81.7994 81.5001 81.7994ZM59.5001 45.7994C60.9001 45.7994 61.8001 46.6994 61.8001 48.0994C61.8001 49.4994 60.9001 50.3994 59.5001 50.3994C58.4001 50.3994 57.2001 49.4994 57.2001 48.0994C57.2001 46.6994 58.1001 45.7994 59.5001 45.7994ZM51.1001 77.2994H44.3001V70.4994H51.1001V77.2994ZM51.1001 65.9994H44.3001V59.1994H51.1001V65.9994ZM64.6001 81.7994H55.6001V74.9994C55.6001 72.4994 57.6001 70.4994 60.1001 70.4994C62.6001 70.4994 64.6001 72.4994 64.6001 74.9994V81.7994ZM64.6001 65.9994H55.6001V59.1994H64.6001V65.9994ZM75.9001 77.2994H69.1001V70.4994H75.9001V77.2994ZM75.9001 65.9994H69.1001V59.1994H75.9001V65.9994Z" fill="url(#paint0_linear)"/>
<defs>
<linearGradient id="paint0_linear" x1="60.1381" y1="42.6371" x2="60.1381" y2="86.2884" gradientUnits="userSpaceOnUse">
<stop stop-color="#FF8989"/>
<stop offset="1" stop-color="#FA5252"/>
</linearGradient>
</defs>
</svg>
